<?xml version="1.0" encoding="UTF-8"?>
<svg id="Layer_1" data-name="Layer 1" xmlns="http://www.w3.org/2000/svg" viewBox="0 0 24 24">
  <defs>
    <style>
      .cls-1 {
        fill: #010101;
      }
    </style>
  </defs>
  <path class="cls-1" d="M23.48,11.99s0,0,0,0c0,0,0,0,0,0,0,0,0,0,0,0,0,0,0,0,0,0,0,0,0,0,0,0,0,0,0,0,0,0,0,0,0,0,0,0l-.56-.09c-.07-5.9-4.86-10.69-10.76-10.76l-.09-.56s0,0,0,0c0,0,0,0,0,0,0,0,0,0,0,0,0,0,0,0,0,0,0,0,0,0,0,0,0,0,0,0,0,0,0,0,0,0,0,0,0,0,0,0,0,0,0,0,0,0,0,0,0,0,0,0,0,0,0,0,0,0,0,0,0,0,0,0,0,0,0,0,0,0-.01,0,0,0,0,0,0,0,0,0,0,0,0,0,0,0,0,0,0,0,0,0,0,0,0,0,0,0,0,0,0,0l-.09.56C5.97,1.18,1.18,5.97,1.11,11.87l-.56.09s0,0,0,0c0,0,0,0,0,0,0,0,0,0,0,0,0,0,0,0,0,0,0,0,0,0,0,0s0,0,0,0c0,0,0,0,0,0,0,0,0,0,0,0s0,0,0,0,0,0,0,0c0,0,0,0,0,0,0,0,0,0,0,0,0,0,0,0,0,0,0,0,0,0,0,0,0,0,0,0,0,0,0,0,0,0,0,0,0,0,0,0,0,0,0,0,0,0,0,0l.56.09c.07,5.9,4.86,10.69,10.76,10.76l.09.56s0,0,0,0c0,0,0,0,0,0h0s0,0,0,.01c0,0,0,0,0,0,0,0,0,0,0,0,0,0,0,0,0,0,0,0,0,0,0,0h0s0,0,0,0c0,0,0,0,0,0,0,0,0,0,0,0,0,0,0,0,0,0,0,0,0,0,0,0,0,0,0,0,0,0,0,0,0,0,0,0,0,0,0,0,0,0l.09-.56c5.9-.07,10.69-4.86,10.76-10.76l.56-.09s0,0,0,0c0,0,0,0,0,0,0,0,0,0,0,0s0,0,0,0c0,0,0,0,0,0s0,0,0,0c0,0,0,0,0,0,0,0,0,0,0,0s0,0,0,0c0,0,0,0,0,0,0,0,0,0,0,0ZM11.85,1.19l-.1.6c-.2,0-.41.02-.61.03l-.05-.6c.25-.02.5-.03.76-.04ZM6.79,7.19l.21.29c-.94,1.04-1.52,2.32-1.69,3.7l-.36.06c.17-1.55.84-2.96,1.84-4.05ZM4.86,11.25l-.72.12c.15-1.87.95-3.55,2.18-4.83l.42.58c-1.03,1.11-1.71,2.54-1.88,4.13ZM7.04,7.55l2.15,2.99-3.8.63c.17-1.35.74-2.6,1.66-3.62ZM6.27,6.32l4.03,4.03-.16.03-.86.14-3.01-4.2ZM7.55,7.05c1.02-.92,2.27-1.49,3.62-1.65l-.63,3.8-2.99-2.15ZM7.48,7l-.29-.21c1.09-1.01,2.49-1.68,4.05-1.84l-.06.36c-1.38.17-2.66.75-3.7,1.69ZM7.12,6.74l-.58-.42c1.27-1.23,2.96-2.03,4.83-2.18l-.12.72c-1.59.17-3.02.85-4.13,1.88ZM6.48,6.28l-.51-.36s0,0,0,0c0,0,0,0,0,0,0,0,0,0,0,0,0,0,0,0,0,0,0,0,0,0,0,0h0s0,0,0,0c0,0,0,0,0,0,0,0,0,0,0,0,0,0,0,0,0,0,0,0,0,0,0,0,0,0,0,0,0,0,0,0,0,0,0,0,0,0,0,0,0,0,0,0,0,0,0,0,0,0,0,0,0,0s0,0,0,0c0,0,0,0,0,0l.36.51c-1.25,1.29-2.07,3.01-2.21,4.91l-2.19.36C2.01,6.36,6.36,2.01,11.74,1.88l-.36,2.19c-1.9.15-3.61.96-4.91,2.21ZM11.02,1.24l.05.6c-.27.02-.54.06-.8.1l-.1-.59c.28-.05.57-.09.85-.11ZM10.08,1.36l.1.59c-.27.05-.53.11-.79.18l-.16-.58c.28-.07.56-.13.84-.19ZM9.16,1.57l.16.58c-.26.07-.52.15-.77.24l-.2-.56c.27-.1.54-.18.82-.26ZM8.26,1.86l.2.56c-.25.09-.5.2-.75.31l-.25-.54c.26-.12.53-.23.8-.33ZM7.4,2.22l.25.54c-.24.12-.48.24-.72.38l-.3-.52c.25-.14.5-.28.76-.4ZM6.56,2.66l.3.52c-.23.14-.46.28-.68.44l-.34-.49c.24-.16.48-.32.73-.46ZM5.77,3.17l.34.49c-.22.16-.43.32-.64.49l-.38-.46c.22-.18.45-.36.68-.53ZM5.02,3.75l.38.46c-.21.17-.41.36-.6.55l-.42-.42c.2-.2.42-.4.64-.58ZM4.33,4.39l.42.42c-.19.19-.37.39-.55.6l-.46-.38c.19-.22.38-.43.58-.64ZM3.7,5.09l.46.38c-.17.21-.34.42-.49.64l-.49-.34c.17-.23.34-.46.53-.68ZM3.13,5.84l.49.34c-.15.22-.3.45-.44.68l-.52-.3c.15-.25.3-.49.46-.73ZM2.62,6.63l.52.3c-.13.23-.26.47-.38.72l-.54-.25c.12-.26.26-.52.4-.76ZM2.19,7.47l.54.25c-.11.24-.22.49-.31.75l-.56-.21c.1-.27.21-.54.33-.8ZM1.83,8.34l.56.2c-.09.25-.17.51-.24.77l-.58-.16c.08-.28.16-.55.26-.82ZM1.55,9.24l.58.16c-.07.26-.13.52-.18.79l-.59-.1c.05-.28.11-.57.19-.84ZM1.35,10.16l.59.1c-.05.26-.08.53-.1.8l-.6-.05c.03-.29.06-.57.11-.85ZM1.23,11.1l.6.05c-.02.2-.03.4-.03.61l-.6.1c0-.25.02-.51.04-.76ZM1.19,12.15l.6.1c0,.2.02.41.03.61l-.6.05c-.02-.25-.03-.5-.04-.76ZM1.24,12.98l.6-.05c.02.27.06.54.1.8l-.59.1c-.05-.28-.09-.57-.11-.85ZM7.19,17.21l.29-.21c1.04.94,2.32,1.52,3.7,1.69l.06.36c-1.55-.17-2.96-.84-4.05-1.84ZM11.25,19.14l.12.72c-1.87-.15-3.55-.95-4.83-2.18l.58-.42c1.11,1.03,2.54,1.71,4.13,1.88ZM7.55,16.95l2.99-2.15.63,3.8c-1.35-.17-2.6-.74-3.62-1.66ZM6.32,17.73l4.03-4.03.03.19.14.83-4.2,3.01ZM7.04,16.45c-.92-1.02-1.49-2.27-1.65-3.62l3.8.63-2.15,2.99ZM7,16.52l-.21.29c-1.01-1.09-1.68-2.49-1.84-4.05l.36.06c.17,1.38.75,2.66,1.69,3.7ZM6.74,16.88l-.42.58c-1.23-1.27-2.03-2.96-2.18-4.83l.72.12c.17,1.59.85,3.02,1.88,4.13ZM6.28,17.52l-.36.51s0,0,0,0c0,0,0,0,0,0s0,0,0,0c0,0,0,0,0,0s0,0,0,0c0,0,0,0,0,0,0,0,0,0,0,0,0,0,0,0,0,0,0,0,0,0,0,0,0,0,0,0,0,0,0,0,0,0,0,0,0,0,0,0,0,0,0,0,0,0,.02,0,0,0,.01,0,.02,0,0,0,0,0,0,0l.51-.36c1.29,1.25,3.01,2.07,4.91,2.21l.36,2.19c-5.38-.13-9.73-4.49-9.87-9.87l2.19.36c.15,1.9.96,3.61,2.21,4.91ZM1.36,13.92l.59-.1c.05.27.11.53.18.79l-.58.16c-.07-.28-.14-.56-.19-.84ZM1.57,14.84l.58-.16c.07.26.15.52.24.77l-.56.2c-.1-.27-.18-.54-.26-.82ZM1.86,15.73l.56-.21c.09.25.2.5.31.75l-.54.25c-.12-.26-.23-.53-.33-.8ZM2.22,16.6l.54-.25c.12.24.24.48.38.72l-.52.3c-.14-.25-.28-.5-.4-.76ZM2.66,17.44l.52-.3c.14.23.28.46.44.68l-.49.34c-.16-.24-.32-.48-.46-.73ZM3.17,18.23l.49-.34c.16.22.32.43.49.64l-.46.38c-.18-.22-.36-.45-.53-.68ZM3.75,18.97l.46-.38c.17.21.36.41.55.6l-.42.42c-.2-.2-.4-.42-.58-.64ZM4.39,19.67l.42-.42c.19.19.39.37.6.55l-.38.46c-.22-.19-.43-.38-.64-.58ZM5.09,20.3l.38-.46c.21.17.42.34.64.49l-.34.49c-.23-.17-.46-.34-.68-.53ZM5.84,20.87l.34-.49c.22.15.45.3.68.44l-.3.52c-.25-.15-.49-.3-.73-.46ZM6.63,21.38l.3-.52c.23.13.47.26.72.38l-.25.54c-.26-.12-.52-.26-.76-.4ZM7.47,21.81l.25-.54c.24.11.49.22.75.31l-.2.56c-.27-.1-.54-.21-.8-.33ZM8.34,22.17l.2-.56c.25.09.51.17.77.24l-.16.58c-.28-.08-.55-.16-.82-.26ZM9.24,22.45l.16-.58c.26.07.52.13.79.18l-.1.59c-.28-.05-.57-.11-.84-.19ZM11.02,22.76c-.29-.03-.57-.06-.85-.11l.1-.59c.26.05.53.08.8.1l-.05.6ZM11.1,22.77l.05-.6c.2.02.4.03.61.03l.1.6c-.25,0-.51-.02-.76-.04ZM10.37,13.57l-9.32-1.53h10.85l-1.53,1.53ZM10.7,10.64l-.27-.27,1.53-9.32v10.85l-1.26-1.26ZM22.81,11.85l-.6-.1c0-.2-.02-.41-.03-.61l.6-.05c.02.25.03.5.04.76ZM22.76,11.02l-.6.05c-.02-.27-.06-.54-.1-.8l.59-.1c.05.28.09.57.11.85ZM16.81,6.79l-.29.21c-1.04-.94-2.32-1.52-3.7-1.69l-.06-.36c1.55.17,2.96.84,4.05,1.84ZM12.75,4.86l-.12-.72c1.87.15,3.55.95,4.83,2.18l-.58.42c-1.11-1.03-2.54-1.71-4.13-1.88ZM16.45,7.05l-2.99,2.15-.63-3.8c1.35.17,2.6.74,3.62,1.66ZM17.68,6.27l-3.48,3.48-.55.55-.06-.38-.1-.64,4.2-3.02ZM16.95,7.55c.92,1.02,1.49,2.27,1.65,3.62l-3.8-.63,2.15-2.99ZM17,7.48l.21-.29c1.01,1.09,1.68,2.49,1.84,4.05l-.36-.06c-.17-1.38-.75-2.66-1.69-3.7ZM17.26,7.12l.42-.58c1.23,1.27,2.03,2.96,2.18,4.83l-.72-.12c-.17-1.59-.85-3.02-1.88-4.13ZM17.72,6.48l.36-.51s0,0,0,0c0,0,0,0,0,0s0,0,0,0c0,0,0,0,0,0s0,0,0,0c0,0,0,0,0,0,0,0,0,0,0,0,0,0,0,0,0,0,0,0,0,0,0,0s0,0,0,0c0,0,0,0,0,0,0,0,0,0,0,0,0,0,0,0,0,0,0,0,0,0,0,0,0,0,0,0,0,0,0,0,0,0,0,0,0,0,0,0,0,0,0,0,0,0,0,0l-.51.36c-1.29-1.25-3.01-2.07-4.91-2.21l-.36-2.19c5.38.14,9.73,4.49,9.87,9.87l-2.19-.36c-.15-1.9-.96-3.61-2.21-4.91ZM22.64,10.08l-.59.1c-.05-.27-.11-.53-.18-.79l.58-.16c.07.28.14.56.19.84ZM22.43,9.16l-.58.16c-.07-.26-.15-.52-.24-.77l.56-.21c.1.27.18.54.26.82ZM22.14,8.27l-.56.21c-.09-.25-.2-.5-.31-.75l.54-.25c.12.26.23.53.33.8ZM21.78,7.4l-.54.25c-.12-.24-.24-.48-.38-.72l.52-.3c.14.25.28.5.4.76ZM21.34,6.56l-.52.3c-.14-.23-.28-.46-.44-.68l.49-.34c.16.24.32.48.46.73ZM20.83,5.77l-.49.34c-.16-.22-.32-.43-.49-.64l.46-.38c.18.22.36.45.53.68ZM20.25,5.03l-.46.38c-.17-.21-.36-.41-.55-.6l.42-.42c.2.2.4.42.58.64ZM19.61,4.33l-.42.42c-.19-.19-.39-.37-.6-.55l.38-.46c.22.19.43.38.64.58ZM18.91,3.7l-.38.46c-.21-.17-.42-.34-.64-.49l.34-.49c.23.17.46.34.68.53ZM18.16,3.13l-.34.49c-.22-.15-.45-.3-.68-.44l.3-.52c.25.15.49.3.73.46ZM17.37,2.62l-.3.52c-.23-.13-.47-.26-.72-.38l.25-.54c.26.12.52.26.76.4ZM16.53,2.19l-.25.54c-.24-.11-.49-.22-.75-.31l.2-.56c.27.1.54.21.8.33ZM15.66,1.83l-.2.56c-.25-.09-.51-.17-.77-.24l.16-.58c.28.08.55.16.82.26ZM14.76,1.55l-.16.58c-.26-.07-.52-.13-.79-.18l.1-.59c.28.05.57.11.84.19ZM12.98,1.24c.29.03.57.06.85.11l-.1.59c-.26-.05-.53-.08-.8-.1l.05-.6ZM12.9,1.23l-.05.6c-.2-.02-.4-.03-.61-.03l-.1-.6c.25,0,.51.02.76.04ZM12.04,22.95v-10.85l1.53,1.53-1.53,9.32ZM16.88,17.26l.58.42c-1.27,1.23-2.96,2.03-4.83,2.18l.12-.72c1.59-.17,3.02-.85,4.13-1.88ZM12.76,19.05l.06-.36c1.38-.17,2.66-.75,3.7-1.69l.29.21c-1.09,1.01-2.5,1.68-4.05,1.84ZM17.52,17.72l.51.36s0,0,0,0c0,0,.01,0,.02,0,0,0,.01,0,.02,0,0,0,0,0,0,0,0,0,0,0,0,0,0,0,0,0,0,0,0,0,0,0,0,0,0,0,0,0,0,0,0,0,0,0,0,0,0,0,0,0,0,0,0,0,0,0,0,0,0,0,0,0,0,0,0,0,0,0,0,0s0,0,0,0c0,0,0,0,0,0l-.36-.51c1.25-1.29,2.07-3.01,2.21-4.91l2.19-.36c-.14,5.38-4.49,9.73-9.87,9.87l.36-2.19c1.9-.15,3.61-.96,4.91-2.21ZM17.68,17.46l-.42-.58c1.03-1.11,1.71-2.54,1.88-4.13l.72-.12c-.15,1.87-.95,3.55-2.18,4.83ZM17.21,16.81l-.21-.29c.94-1.04,1.52-2.32,1.69-3.7l.36-.06c-.17,1.55-.84,2.96-1.84,4.05ZM16.95,16.45l-2.15-2.99,3.8-.63c-.17,1.35-.74,2.6-1.66,3.62ZM17.73,17.68l-4.03-4.03.2-.03.82-.13,3.01,4.2ZM16.45,16.95c-1.02.92-2.27,1.49-3.62,1.65l.63-3.8,2.99,2.15ZM12.14,22.81l.1-.6c.2,0,.41-.02.61-.03l.05.6c-.25.02-.5.03-.76.04ZM12.98,22.76l-.05-.6c.27-.02.54-.06.8-.1l.1.59c-.28.05-.57.09-.85.11ZM13.92,22.64l-.1-.59c.27-.05.53-.11.79-.18l.16.58c-.28.07-.56.14-.84.19ZM14.84,22.43l-.16-.58c.26-.07.52-.15.77-.24l.2.56c-.27.1-.54.18-.82.26ZM15.73,22.14l-.2-.56c.25-.09.5-.2.75-.31l.25.54c-.26.12-.53.23-.8.33ZM16.6,21.78l-.25-.54c.24-.12.48-.24.72-.37l.3.52c-.25.14-.5.28-.76.4ZM17.44,21.34l-.3-.52c.23-.14.46-.28.68-.44l.34.49c-.24.16-.48.32-.73.46ZM18.23,20.83l-.34-.49c.22-.16.43-.32.64-.49l.39.46c-.22.18-.45.36-.68.53ZM18.97,20.25l-.38-.46c.21-.17.41-.36.6-.55l.42.42c-.2.2-.42.4-.64.58ZM19.67,19.61l-.42-.42c.19-.19.37-.39.55-.6l.46.38c-.19.22-.38.43-.58.63ZM20.3,18.91l-.46-.38c.17-.21.34-.42.49-.64l.49.34c-.17.23-.34.46-.53.68ZM20.87,18.16l-.49-.34c.15-.22.3-.45.44-.68l.52.3c-.15.25-.3.49-.46.73ZM21.38,17.37l-.52-.3c.13-.23.26-.47.38-.72l.54.25c-.12.26-.26.52-.4.76ZM21.81,16.53l-.54-.25c.11-.24.22-.49.31-.75l.56.2c-.1.27-.21.54-.33.8ZM22.17,15.66l-.56-.2c.09-.25.17-.51.24-.77l.58.15c-.08.28-.16.55-.26.82ZM22.45,14.76l-.58-.16c.07-.26.13-.52.18-.79l.59.1c-.05.28-.11.57-.19.84ZM22.65,13.84l-.59-.1c.05-.26.08-.53.11-.8l.6.05c-.03.29-.06.57-.11.86ZM22.77,12.9l-.6-.05c.02-.2.03-.4.03-.61l.6-.1c0,.25-.02.51-.04.76ZM12.1,11.96l1.26-1.26.27-.27,9.32,1.53h-10.85Z"/>
</svg>