<?xml version="1.0" encoding="UTF-8"?>
<svg id="Layer_1" data-name="Layer 1" xmlns="http://www.w3.org/2000/svg" viewBox="0 0 128 128">
  <defs>
    <style>
      .cls-1 {
        fill: #010101;
      }
    </style>
  </defs>
  <path class="cls-1" d="M127.99,63.91s0-.03-.01-.04c0-.01-.01-.02-.02-.04,0,0-.01-.02-.02-.03,0,0-.02-.02-.03-.03,0,0-.02-.02-.03-.02-.01,0-.03-.01-.04-.02,0,0-.02,0-.02,0l-3.12-.51c-.39-32.86-27.04-59.51-59.9-59.9l-.51-3.12s0-.02,0-.02c0-.01,0-.03-.02-.04,0-.01-.01-.02-.02-.04,0,0-.02-.02-.02-.03-.01-.01-.02-.02-.04-.03,0,0-.02,0-.02-.01-.02,0-.03-.01-.05-.01,0,0-.01,0-.02,0,0,0,0,0-.02,0,0,0-.01,0-.02,0-.01,0-.02,0-.03,0,0,0-.01,0-.02,0-.02,0-.04.02-.06.03,0,0,0,0,0,0-.02.01-.03.03-.04.05,0,0,0,.01-.01.02,0,.01-.01.03-.02.05,0,0,0,.01,0,.02l-.51,3.12C30.47,3.7,3.81,30.35,3.42,63.21l-3.12.51s-.02,0-.02,0c-.01,0-.03,0-.04.02-.01,0-.02.01-.03.02-.01,0-.02.02-.03.03,0,0-.02.02-.02.03s-.01.02-.02.04c0,.01,0,.03-.01.04,0,0,0,.02,0,.02s0,.01,0,.02,0,.01,0,.02c0,0,0,.02,0,.02,0,.01,0,.03.01.04,0,.01.01.02.02.04,0,0,.01.02.02.03,0,0,.02.02.03.03,0,0,.02.02.03.02.01,0,.03.01.04.02,0,0,.02,0,.02,0l3.12.51c.39,32.86,27.04,59.51,59.9,59.9l.51,3.12s0,.02,0,.02c0,.01,0,.02.01.04l.02.03s.01.02.02.03c.01,0,.02.02.03.02,0,0,.02.01.03.02.01,0,.03,0,.04.01,0,0,.02,0,.02,0h.04s.02,0,.02,0c.02,0,.03,0,.04-.01.01,0,.02-.01.03-.02.01,0,.02-.02.03-.02,0,0,.02-.02.02-.03,0-.01.02-.02.02-.03,0-.01,0-.02.01-.04,0,0,0-.02,0-.02l.51-3.12c32.86-.39,59.51-27.04,59.9-59.9l3.12-.51s.02,0,.02,0c.01,0,.03,0,.04-.02.01,0,.02-.01.03-.02s.02-.02.03-.03c0,0,.02-.02.02-.03s.01-.02.02-.04c0-.01,0-.03.01-.04,0,0,0-.02,0-.02s0-.01,0-.02c0,0,0-.01,0-.02,0,0,0-.02,0-.02ZM63.25,3.76l-.55,3.35c-1.13.02-2.26.09-3.37.18l-.29-3.33c1.39-.12,2.8-.19,4.21-.21ZM35.03,37.16l1.16,1.61c-5.23,5.78-8.49,12.92-9.41,20.6l-2.01.33c.93-8.65,4.66-16.47,10.26-22.54ZM24.31,59.78l-3.99.66c.83-10.4,5.3-19.79,12.13-26.89l2.32,3.24c-5.73,6.18-9.54,14.16-10.46,22.99ZM36.46,39.15l11.96,16.67-21.18,3.48c.93-7.5,4.11-14.49,9.22-20.15ZM32.13,32.34l22.46,22.46-.87.14-4.8.79-16.79-23.4ZM39.25,36.35c5.66-5.1,12.65-8.28,20.15-9.21l-3.48,21.17-16.67-11.96ZM38.88,36.08l-1.62-1.16c6.07-5.61,13.89-9.34,22.55-10.26l-.33,2.02c-7.68.93-14.82,4.17-20.6,9.4ZM36.89,34.65l-3.23-2.32c7.1-6.83,16.48-11.3,26.88-12.13l-.66,3.99c-8.83.92-16.82,4.72-22.99,10.46ZM33.29,32.07l-2.82-2.02s-.02,0-.02-.01c-.01,0-.02-.01-.04-.02-.01,0-.03,0-.04,0-.01,0-.02,0-.04,0-.02,0-.03,0-.04,0h-.03s-.03.02-.04.03c0,0-.01,0-.02.01,0,0,0,0-.01.01,0,0-.01,0-.02.01,0,0,0,.02-.01.02,0,.01-.02.02-.02.04,0,.01,0,.02-.01.04,0,.01,0,.03,0,.04,0,.02,0,.03,0,.04,0,.01,0,.02,0,.04s0,.02.02.04c0,0,0,.01,0,.02l2.02,2.82c-6.96,7.21-11.5,16.75-12.32,27.33l-12.19,2.01c.75-29.97,24.99-54.2,54.96-54.95l-2.01,12.19c-10.58.82-20.12,5.36-27.32,12.32ZM58.58,4l.29,3.33c-1.51.14-3,.33-4.47.58l-.58-3.28c1.57-.27,3.15-.48,4.76-.63ZM53.38,4.71l.58,3.29c-1.49.27-2.96.59-4.4.98l-.86-3.23c1.54-.41,3.1-.75,4.69-1.04ZM48.26,5.86l.86,3.22c-1.46.4-2.89.85-4.3,1.36l-1.14-3.14c1.5-.54,3.03-1.02,4.58-1.45ZM43.25,7.46l1.14,3.14c-1.42.52-2.81,1.1-4.17,1.73l-1.41-3.02c1.45-.67,2.93-1.29,4.43-1.84ZM38.41,9.5l1.41,3.02c-1.36.64-2.7,1.34-4,2.09l-1.67-2.89c1.39-.79,2.81-1.54,4.25-2.22ZM33.77,11.95l1.67,2.89c-1.3.76-2.57,1.57-3.8,2.43l-1.91-2.73c1.31-.92,2.66-1.78,4.04-2.59ZM29.36,14.79l1.91,2.73c-1.23.87-2.42,1.78-3.57,2.75l-2.14-2.55c1.23-1.02,2.5-2,3.81-2.92ZM25.21,18l2.14,2.55c-1.15.97-2.26,1.99-3.32,3.05l-2.36-2.36c1.14-1.13,2.32-2.21,3.54-3.24ZM21.35,21.56l2.36,2.36c-1.06,1.07-2.07,2.18-3.05,3.32l-2.55-2.14c1.03-1.22,2.11-2.4,3.24-3.54ZM17.82,25.44l2.55,2.14c-.96,1.15-1.88,2.35-2.75,3.57l-2.73-1.91c.92-1.31,1.9-2.58,2.93-3.81ZM14.64,29.62l2.73,1.91c-.86,1.23-1.67,2.5-2.43,3.8l-2.89-1.67c.81-1.39,1.67-2.73,2.59-4.04ZM11.83,34.05l2.89,1.67c-.75,1.3-1.44,2.63-2.09,4l-3.02-1.41c.69-1.45,1.43-2.87,2.22-4.26ZM9.41,38.72l3.02,1.41c-.63,1.36-1.21,2.75-1.73,4.17l-3.14-1.14c.56-1.51,1.17-2.99,1.84-4.43ZM7.42,43.57l3.13,1.14c-.51,1.41-.96,2.84-1.36,4.3l-3.22-.86c.42-1.55.91-3.08,1.45-4.58ZM5.85,48.58l3.22.86c-.38,1.45-.71,2.91-.98,4.4l-3.28-.58c.29-1.58.63-3.15,1.04-4.69ZM4.73,53.72l3.28.58c-.25,1.47-.45,2.96-.58,4.47l-3.32-.29c.15-1.61.36-3.19.63-4.76ZM4.07,58.92l3.32.29c-.09,1.12-.16,2.24-.18,3.37l-3.34.55c.02-1.42.09-2.82.2-4.22ZM3.87,64.75l3.35.55c.02,1.13.09,2.26.18,3.37l-3.33.29c-.12-1.39-.19-2.8-.21-4.21ZM4.11,69.42l3.33-.29c.14,1.51.33,3,.58,4.47l-3.28.58c-.27-1.57-.48-3.15-.63-4.76ZM37.27,92.97l1.61-1.16c5.78,5.23,12.92,8.49,20.6,9.41l.33,2.01c-8.65-.93-16.47-4.66-22.54-10.26ZM59.89,103.69l.66,3.99c-10.4-.83-19.79-5.3-26.89-12.13l3.24-2.32c6.18,5.73,14.16,9.54,22.99,10.46ZM39.25,91.54l16.67-11.96,3.48,21.18c-7.5-.93-14.49-4.11-20.15-9.22ZM32.44,95.87l22.46-22.46.18,1.07.76,4.6-23.4,16.79ZM36.46,88.75c-5.1-5.67-8.28-12.65-9.21-20.15l21.17,3.48-11.96,16.67ZM36.19,89.12l-1.16,1.62c-5.61-6.07-9.34-13.89-10.26-22.55l2.02.33c.93,7.68,4.17,14.82,9.4,20.6ZM34.76,91.11l-2.32,3.23c-6.83-7.1-11.3-16.48-12.13-26.88l3.99.66c.92,8.83,4.72,16.82,10.46,22.99ZM32.18,94.71l-2.02,2.82s0,.01,0,.02c0,.01-.01.02-.02.04s0,.02,0,.04c0,.02,0,.03,0,.04s0,.03,0,.04c0,.01,0,.02.01.04,0,.01.01.03.02.04,0,0,0,.02.01.02,0,0,0,0,.01,0,0,0,0,.01.01.02.01,0,.02.01.04.02,0,0,.02,0,.02.01.03.01.06.02.08.02.04,0,.08-.01.12-.04,0,0,.01,0,.02,0l2.82-2.02c7.21,6.96,16.75,11.5,27.33,12.32l2.01,12.19c-29.97-.75-54.2-24.99-54.95-54.96l12.19,2.01c.82,10.58,5.36,20.12,12.31,27.33ZM4.82,74.62l3.29-.58c.27,1.49.59,2.96.98,4.4l-3.23.86c-.41-1.54-.75-3.1-1.04-4.69ZM5.97,79.74l3.22-.86c.4,1.46.85,2.89,1.36,4.3l-3.13,1.14c-.54-1.5-1.02-3.03-1.45-4.58ZM7.57,84.74l3.14-1.14c.52,1.42,1.1,2.81,1.73,4.17l-3.02,1.41c-.67-1.45-1.29-2.93-1.84-4.43ZM9.61,89.58l3.02-1.41c.64,1.36,1.34,2.7,2.09,4l-2.89,1.67c-.8-1.39-1.54-2.8-2.22-4.25ZM12.05,94.23l2.89-1.67c.76,1.3,1.57,2.57,2.43,3.8l-2.73,1.91c-.91-1.31-1.78-2.66-2.59-4.04ZM14.9,98.64l2.73-1.91c.87,1.23,1.78,2.42,2.75,3.57l-2.55,2.14c-1.02-1.23-2-2.5-2.92-3.81ZM18.11,102.79l2.55-2.14c.97,1.15,1.99,2.26,3.05,3.32l-2.36,2.36c-1.13-1.14-2.21-2.32-3.24-3.54ZM21.67,106.64l2.36-2.36c1.07,1.06,2.18,2.07,3.32,3.05l-2.14,2.55c-1.22-1.03-2.4-2.11-3.54-3.24ZM25.55,110.18l2.14-2.55c1.15.96,2.35,1.88,3.57,2.75l-1.91,2.73c-1.31-.93-2.58-1.9-3.81-2.93ZM29.73,113.36l1.91-2.73c1.23.86,2.5,1.67,3.8,2.43l-1.67,2.89c-1.39-.81-2.73-1.67-4.04-2.59ZM34.16,116.17l1.67-2.89c1.3.75,2.63,1.44,4,2.09l-1.41,3.02c-1.45-.69-2.87-1.43-4.26-2.22ZM38.82,118.59l1.41-3.02c1.36.63,2.75,1.21,4.17,1.73l-1.14,3.14c-1.51-.56-2.99-1.17-4.43-1.84ZM43.68,120.58l1.14-3.13c1.41.51,2.84.96,4.3,1.36l-.86,3.22c-1.55-.42-3.08-.91-4.58-1.45ZM48.69,122.15l.86-3.22c1.45.38,2.91.71,4.4.98l-.58,3.28c-1.59-.29-3.15-.63-4.69-1.04ZM58.58,123.89c-1.61-.15-3.19-.36-4.76-.63l.58-3.28c1.47.25,2.96.45,4.47.58l-.29,3.32ZM59.03,123.93l.29-3.32c1.12.09,2.24.16,3.37.18l.55,3.34c-1.42-.02-2.82-.09-4.21-.2ZM54.98,72.7L3.09,64.17h60.43l-8.53,8.53ZM56.79,56.37l-1.5-1.5L63.83,2.99v60.41l-7.03-7.03ZM124.24,63.14l-3.35-.55c-.03-1.13-.09-2.26-.18-3.37l3.33-.29c.12,1.39.19,2.8.21,4.21ZM123.99,58.48l-3.33.29c-.14-1.51-.33-3-.58-4.47l3.28-.58c.27,1.57.48,3.15.63,4.76ZM90.84,34.93l-1.61,1.16c-5.78-5.23-12.92-8.49-20.6-9.41l-.33-2.01c8.65.93,16.47,4.66,22.54,10.26ZM68.22,24.2l-.66-3.99c10.4.83,19.79,5.3,26.89,12.13l-3.24,2.32c-6.18-5.73-14.16-9.54-22.99-10.46ZM88.85,36.35l-16.67,11.96-3.48-21.18c7.5.93,14.49,4.11,20.15,9.22ZM95.66,32.02l-19.38,19.38-3.08,3.08-.35-2.13-.58-3.54,23.4-16.79ZM91.65,39.15c5.1,5.67,8.28,12.65,9.21,20.15l-21.17-3.48,11.96-16.67ZM91.92,38.77l1.16-1.62c5.61,6.07,9.34,13.89,10.26,22.55l-2.02-.33c-.93-7.68-4.17-14.82-9.4-20.6ZM93.34,36.78l2.32-3.23c6.83,7.1,11.3,16.48,12.13,26.88l-3.99-.66c-.92-8.83-4.72-16.82-10.46-22.99ZM95.92,33.18l2.02-2.82s0-.01,0-.02c0-.01.01-.02.02-.04s0-.02,0-.04c0-.02,0-.03,0-.04s0-.03,0-.04c0-.01,0-.02-.01-.04,0-.01-.01-.03-.02-.04,0,0,0-.02-.01-.02,0,0-.01,0-.02-.01s0,0-.01-.01c0,0-.01,0-.02-.01-.01,0-.02-.02-.04-.02-.01,0-.02,0-.03-.01-.02,0-.03,0-.04,0-.01,0-.02,0-.04,0-.02,0-.03,0-.04,0-.01,0-.02.01-.03.02,0,0-.02,0-.02.01l-2.82,2.02c-7.21-6.96-16.75-11.5-27.33-12.32l-2-12.19c29.97.75,54.2,24.99,54.95,54.96l-12.19-2.01c-.82-10.58-5.36-20.12-12.32-27.33ZM123.29,53.27l-3.29.58c-.27-1.49-.59-2.96-.98-4.41l3.23-.86c.41,1.54.75,3.1,1.04,4.69ZM122.14,48.15l-3.22.86c-.4-1.46-.85-2.89-1.36-4.3l3.13-1.14c.54,1.5,1.03,3.03,1.45,4.58ZM120.54,43.15l-3.14,1.14c-.52-1.42-1.1-2.81-1.73-4.17l3.02-1.41c.67,1.45,1.29,2.93,1.84,4.43ZM118.5,38.31l-3.02,1.41c-.64-1.36-1.34-2.7-2.09-4l2.89-1.67c.79,1.39,1.54,2.81,2.22,4.26ZM116.06,33.66l-2.89,1.67c-.76-1.3-1.57-2.57-2.43-3.8l2.73-1.91c.92,1.31,1.78,2.66,2.59,4.04ZM113.21,29.25l-2.73,1.91c-.87-1.23-1.79-2.42-2.75-3.57l2.55-2.14c1.02,1.23,2,2.5,2.92,3.81ZM110,25.1l-2.56,2.14c-.97-1.15-1.99-2.26-3.05-3.32l2.36-2.36c1.13,1.14,2.21,2.32,3.24,3.54ZM106.43,21.25l-2.36,2.36c-1.07-1.06-2.18-2.07-3.32-3.05l2.14-2.55c1.22,1.03,2.4,2.12,3.54,3.24ZM102.55,17.71l-2.14,2.55c-1.15-.96-2.35-1.88-3.57-2.75l1.91-2.73c1.31.93,2.58,1.9,3.81,2.93ZM98.38,14.53l-1.91,2.73c-1.23-.86-2.5-1.67-3.8-2.43l1.67-2.89c1.38.81,2.73,1.68,4.04,2.59ZM93.95,11.72l-1.67,2.89c-1.3-.75-2.63-1.44-4-2.09l1.41-3.02c1.45.69,2.87,1.43,4.26,2.22ZM89.28,9.3l-1.41,3.02c-1.36-.63-2.75-1.21-4.17-1.73l1.14-3.14c1.51.56,2.99,1.17,4.43,1.84ZM84.43,7.31l-1.14,3.13c-1.41-.51-2.84-.96-4.3-1.36l.86-3.22c1.55.42,3.08.91,4.58,1.45ZM79.42,5.74l-.87,3.22c-1.45-.38-2.91-.71-4.4-.98l.58-3.28c1.58.28,3.15.63,4.69,1.04ZM69.52,4c1.61.15,3.19.36,4.76.63l-.58,3.28c-1.47-.25-2.96-.45-4.47-.58l.29-3.32ZM69.08,3.96l-.29,3.32c-1.12-.09-2.24-.16-3.37-.18l-.55-3.34c1.42.02,2.82.09,4.21.2ZM64.28,124.91v-60.43l8.53,8.53-8.53,51.9ZM91.22,93.24l3.23,2.32c-7.1,6.83-16.48,11.3-26.88,12.13l.66-3.99c8.83-.92,16.82-4.72,22.99-10.46ZM68.3,103.23l.33-2.02c7.68-.93,14.82-4.17,20.6-9.4l1.62,1.16c-6.07,5.61-13.9,9.34-22.55,10.26ZM94.81,95.82l2.82,2.02s0,0,.02,0c.03.02.07.04.12.04.03,0,.06,0,.08-.02,0,0,.02,0,.02-.01.01,0,.02-.01.04-.02,0,0,0,0,.01-.02,0,0,0,0,.01,0,0,0,0-.02.01-.02,0-.01.02-.02.02-.04,0-.01,0-.02.01-.04,0-.01,0-.03,0-.04,0-.02,0-.03,0-.04,0-.01,0-.02,0-.04s0-.02-.02-.04c0,0,0-.01,0-.02l-2.02-2.82c6.96-7.21,11.5-16.75,12.32-27.33l12.19-2.01c-.75,29.97-24.99,54.2-54.96,54.95l2.01-12.19c10.58-.82,20.12-5.36,27.32-12.32ZM95.66,94.34l-2.32-3.24c5.73-6.18,9.54-14.16,10.46-22.99l3.99-.66c-.83,10.4-5.3,19.78-12.13,26.88ZM93.07,90.73l-1.16-1.61c5.23-5.78,8.49-12.92,9.41-20.6l2.01-.33c-.93,8.65-4.66,16.47-10.26,22.54ZM91.65,88.75l-11.96-16.67,21.18-3.48c-.93,7.5-4.11,14.49-9.22,20.15ZM95.98,95.56l-22.46-22.46,1.12-.18,4.55-.75,16.79,23.4ZM88.85,91.54c-5.67,5.1-12.65,8.28-20.15,9.21l3.48-21.17,16.67,11.96ZM64.86,124.13l.55-3.35c1.13-.03,2.26-.09,3.37-.18l.29,3.33c-1.39.12-2.8.18-4.21.2ZM69.52,123.89l-.29-3.32c1.51-.14,3-.33,4.47-.58l.58,3.28c-1.57.27-3.16.48-4.76.62ZM74.73,123.19l-.58-3.29c1.49-.27,2.96-.6,4.4-.98l.86,3.22c-1.54.41-3.1.76-4.69,1.04ZM79.85,122.03l-.86-3.22c1.46-.4,2.89-.85,4.3-1.36l1.14,3.14c-1.5.54-3.03,1.03-4.58,1.45ZM84.85,120.43l-1.14-3.14c1.41-.52,2.8-1.1,4.16-1.73l1.41,3.02c-1.45.67-2.92,1.29-4.43,1.84ZM89.69,118.39l-1.41-3.02c1.36-.64,2.7-1.34,4-2.09l1.67,2.89c-1.38.8-2.8,1.54-4.25,2.22ZM94.33,115.95l-1.67-2.89c1.3-.76,2.57-1.57,3.8-2.43l1.91,2.73c-1.31.91-2.66,1.78-4.05,2.58ZM98.75,113.1l-1.91-2.73c1.23-.87,2.42-1.79,3.57-2.75l2.15,2.56c-1.23,1.02-2.5,2-3.81,2.92ZM102.9,109.89l-2.14-2.55c1.15-.97,2.26-1.99,3.32-3.05l2.36,2.36c-1.14,1.13-2.32,2.21-3.54,3.24ZM106.75,106.32l-2.36-2.36c1.06-1.07,2.07-2.18,3.05-3.32l2.55,2.14c-1.03,1.22-2.12,2.4-3.24,3.54ZM110.28,102.44l-2.55-2.14c.96-1.15,1.88-2.35,2.75-3.57l2.73,1.91c-.93,1.31-1.9,2.58-2.93,3.81ZM113.47,98.27l-2.73-1.91c.86-1.23,1.67-2.5,2.43-3.8l2.89,1.67c-.81,1.38-1.67,2.73-2.59,4.05ZM116.28,93.84l-2.89-1.67c.75-1.3,1.44-2.63,2.09-4l3.02,1.41c-.69,1.45-1.43,2.87-2.22,4.26ZM118.7,89.18l-3.02-1.41c.63-1.36,1.21-2.75,1.73-4.16l3.13,1.14c-.56,1.51-1.17,2.99-1.84,4.43ZM120.69,84.32l-3.14-1.14c.51-1.41.97-2.84,1.36-4.3l3.22.86c-.42,1.55-.9,3.08-1.44,4.58ZM122.26,79.31l-3.22-.86c.38-1.45.71-2.91.98-4.4l3.28.58c-.28,1.58-.63,3.15-1.04,4.69ZM123.38,74.18l-3.29-.58c.25-1.47.45-2.96.59-4.47l3.32.29c-.15,1.61-.35,3.19-.62,4.76ZM124.04,68.97l-3.32-.29c.09-1.12.16-2.24.18-3.37l3.34-.55c-.02,1.42-.09,2.82-.2,4.21ZM64.6,63.72l7.03-7.03,1.5-1.5,51.9,8.53h-60.42Z"/>
</svg>