<?xml version="1.0" encoding="UTF-8" standalone="no"?>
<svg width="11.2889mm" height="11.2889mm"
 viewBox="0 0 32 32"
 xmlns="http://www.w3.org/2000/svg" xmlns:xlink="http://www.w3.org/1999/xlink"  version="1.2" baseProfile="tiny">
<title>Qt SVG Document</title>
<desc>Generated with Qt</desc>
<defs>
</defs>
<g fill="none" stroke="black" stroke-width="1" fill-rule="evenodd" stroke-linecap="square" stroke-linejoin="bevel" >

<g fill="none" stroke="#000000" stroke-opacity="1" stroke-width="1" stroke-linecap="square" stroke-linejoin="bevel" transform="matrix(1.33333,0,0,1.33333,16,16)"
font-family="MS Shell Dlg 2" font-size="9.8" font-weight="400" font-style="normal" 
>
</g>

<g fill="#f8f8f8" fill-opacity="1" stroke="none" transform="matrix(0.39685,0,0,0.39685,6.07874,6.07874)"
font-family="MS Shell Dlg 2" font-size="9.8" font-weight="400" font-style="normal" 
opacity="0" >
<path vector-effect="none" fill-rule="nonzero" d="M25,0 C16.72,0 10,6.66 10,14.87 C10,23.08 25,50.01 25,50.01 C25,50.01 40,23.09 40,14.88 C40,6.67 33.28,0.01 25,0.01 L25,0 M24.95,19.31 C22.39,19.31 20.32,17.25 20.32,14.72 C20.32,12.19 22.39,10.13 24.95,10.13 C27.51,10.13 29.58,12.18 29.58,14.72 C29.58,17.25 27.51,19.31 24.95,19.31 "/>
</g>

<g fill="none" stroke="#000000" stroke-opacity="1" stroke-width="1" stroke-linecap="square" stroke-linejoin="bevel" transform="matrix(1.33333,0,0,1.33333,16,16)"
font-family="MS Shell Dlg 2" font-size="9.8" font-weight="400" font-style="normal" 
>
</g>

<g fill="none" stroke="#000000" stroke-opacity="1" stroke-width="1" stroke-linecap="square" stroke-linejoin="bevel" transform="matrix(1,0,0,1,0,0)"
font-family="MS Shell Dlg 2" font-size="9.8" font-weight="400" font-style="normal" 
>
</g>
</g>
</svg>
